<svg width="41" height="48" viewBox="0 0 41 48" fill="none" xmlns="http://www.w3.org/2000/svg">
<path d="M35.2492 33.0637C34.114 32.6972 32.9353 32.4824 31.7439 32.4248L27.7515 32.0324C27.3373 31.9854 26.9503 31.8023 26.6512 31.5118C26.3521 31.2212 26.1579 30.8397 26.0988 30.427L25.7563 27.7471C27.1213 26.6391 28.1088 25.1349 28.5825 23.4418C28.799 22.6641 28.9428 21.8626 29.1149 21.0742C29.2736 21.1014 29.4343 21.1158 29.5953 21.117C30.3759 21.1185 31.1277 20.8228 31.6982 20.29C32.2687 19.7572 32.6149 19.0272 32.6667 18.2484C32.7184 17.4695 32.4717 16.7001 31.9768 16.0966C31.4818 15.493 30.7756 15.1004 30.0017 14.9987V14.4877C30.0592 14.3902 30.0898 14.2793 30.0904 14.1662V12.0934L32.3073 10.6771C33.0233 10.226 33.594 9.57803 33.9512 8.81083C34.3083 8.04364 34.4367 7.18975 34.321 6.35145C34.2053 5.51315 33.8503 4.72599 33.2987 4.08425C32.7471 3.44251 32.0221 2.9734 31.2107 2.73313L24.4657 0.620391C21.8407 -0.206797 19.0248 -0.206797 16.3997 0.620391L9.65843 2.73497C8.84703 2.97529 8.12211 3.44443 7.57051 4.08619C7.01891 4.72795 6.66401 5.51513 6.54833 6.35342C6.43264 7.19172 6.56108 8.04559 6.91825 8.81276C7.27541 9.57993 7.84617 10.2279 8.56215 10.679L10.7791 12.0952V14.1677C10.7798 14.2809 10.8105 14.392 10.8681 14.4895V14.9861C10.0814 15.0634 9.35461 15.4409 8.83888 16.0401C8.32316 16.6393 8.05809 17.4141 8.09876 18.2036C8.13942 18.9931 8.48269 19.7367 9.05725 20.2797C9.63181 20.8227 10.3935 21.1235 11.184 21.1196C11.3738 21.1183 11.5631 21.0993 11.7494 21.0627C11.9227 21.856 12.0679 22.6622 12.2851 23.4452C12.7585 25.1383 13.746 26.6425 15.1113 27.7501L14.7688 30.4296C14.709 30.8421 14.5145 31.2232 14.2155 31.5136C13.9165 31.804 13.5298 31.9873 13.1157 32.035L9.3839 32.4019C8.83705 32.4555 8.2891 32.5043 7.74263 32.5545C7.12475 32.6125 6.51512 32.7383 5.92475 32.9296C5.248 33.114 4.60658 33.4095 4.02668 33.8041C3.11229 34.3656 2.31039 35.0923 1.66196 35.9472C1.60383 36.0286 1.56584 36.1227 1.55111 36.2217C0.541235 37.6687 -0.00018102 39.3909 4.54006e-08 41.1555V46.6516C4.54006e-08 46.8231 0.0681245 46.9876 0.189386 47.1088C0.310648 47.2301 0.475114 47.2982 0.646605 47.2982H40.2173C40.3888 47.2982 40.5533 47.2301 40.6745 47.1088C40.7958 46.9876 40.8639 46.8231 40.8639 46.6516V41.1555C40.8689 39.3942 40.3331 37.6738 39.329 36.2267C38.3249 34.7796 36.9008 33.6755 35.2492 33.0637ZM33.4572 35.4905V33.9172C34.166 34.0379 34.853 34.2633 35.4956 34.586L34.7319 36.1275L33.4572 35.4905ZM36.6023 35.2655C37.0261 35.5773 37.4152 35.9338 37.7628 36.3288L36.9869 37.2544L35.8891 36.7054L36.6023 35.2655ZM27.0517 33.2059C28.0715 33.4867 29.2106 33.4753 30.2596 33.5784L24.9815 38.8661L21.5844 35.6335L24.6951 33.3729L25.8457 32.5368C26.1932 32.8464 26.6051 33.075 27.0517 33.2059ZM22.4649 38.2576L21.1066 39.9085H20.0451L18.6861 38.2576L20.5761 36.4593L21.0431 36.9027L22.4649 38.2576ZM28.7942 13.5203H12.0704V12.3871H28.795L28.7942 13.5203ZM28.5031 14.8135C28.4002 15.348 28.1706 15.8499 27.8336 16.2773C27.4966 16.7046 27.0619 17.0449 26.5662 17.2695C24.6373 18.1376 22.5461 18.5865 20.4309 18.5865C18.3156 18.5865 16.2244 18.1376 14.2955 17.2695C13.8001 17.0448 13.3658 16.7045 13.0291 16.2772C12.6923 15.8499 12.4629 15.3481 12.3601 14.8139L28.5031 14.8135ZM31.3744 18.0432C31.3739 18.5154 31.1861 18.968 30.8523 19.3019C30.5185 19.6358 30.0659 19.8236 29.5938 19.8242C29.5259 19.8242 29.458 19.82 29.3906 19.8116C29.7033 18.6658 29.9062 17.4928 29.9965 16.3085C30.3882 16.3999 30.7375 16.621 30.9877 16.9359C31.2379 17.2508 31.3743 17.6411 31.3747 18.0432H31.3744ZM7.80101 6.96192C7.80577 6.28856 8.02637 5.63449 8.43039 5.09579C8.83441 4.55709 9.40056 4.16217 10.0456 3.96906L16.787 1.85448C19.16 1.10616 21.7058 1.10616 24.0788 1.85448L30.8201 3.96906C31.4652 4.16224 32.0312 4.55718 32.4352 5.09588C32.8391 5.63457 33.0597 6.28861 33.0644 6.96192C33.0626 7.48714 32.9281 8.00338 32.6732 8.46263C32.4184 8.92187 32.0515 9.30921 31.6068 9.58861L29.2524 11.0939H11.613L9.25901 9.58898C8.8141 9.30961 8.44709 8.92225 8.1921 8.46293C7.93712 8.00361 7.80246 7.48726 7.80064 6.96192H7.80101ZM11.1822 19.8242C10.7373 19.8241 10.3084 19.6575 9.98018 19.3572C9.65192 19.0568 9.44797 18.6445 9.40849 18.2013C9.36901 17.7581 9.49686 17.3162 9.76686 16.9625C10.0369 16.6089 10.4295 16.3691 10.8674 16.2904C10.9556 17.4771 11.158 18.6526 11.4719 19.8005C11.3761 19.8164 11.2792 19.8243 11.1822 19.8242ZM13.7941 23.8727C13.3189 22.6999 13.139 21.3786 12.8704 20.1467C12.6712 19.2293 12.451 18.3148 12.2829 17.3915C12.7031 17.8371 13.2068 18.1959 13.7653 18.4475C15.8611 19.3905 18.1332 19.8782 20.4314 19.8782C22.7296 19.8782 25.0017 19.3905 27.0975 18.4475C27.6561 18.1959 28.1599 17.8371 28.5803 17.3915C28.4114 18.3274 28.1842 19.2537 27.9843 20.1833C27.7223 21.4026 27.5409 22.7121 27.0702 23.8723C26.581 25.0759 25.7729 26.1234 24.7328 26.9021C24.0805 27.3429 23.3786 27.7054 22.6415 27.9821C21.2055 28.4485 19.6588 28.4485 18.2228 27.9821C17.4855 27.7047 16.7831 27.3424 16.1296 26.9025C15.0902 26.1237 14.2827 25.0762 13.7941 23.8727ZM18.1947 29.3219C20.3333 29.9103 22.6174 29.6363 24.5562 28.5589L24.8148 30.5911C24.8624 30.9006 24.9575 31.201 25.0968 31.4815L20.6695 34.6987L20.5761 34.7667L15.8544 31.3363C15.9509 31.0971 16.0163 30.8465 16.0491 30.5907L16.3077 28.5585C16.9035 28.8889 17.5371 29.1457 18.1947 29.3234V29.3219ZM13.2399 33.3194C13.9579 33.2441 14.6286 32.9254 15.1405 32.4163L19.5677 35.6335L17.3586 37.7359L16.1707 38.8661L10.8667 33.5533L13.2399 33.3194ZM4.19148 35.2998L4.88907 36.7039L3.79132 37.2529L3.05567 36.3773C3.39463 35.9786 3.77542 35.6175 4.19148 35.3002V35.2998ZM6.04557 36.1271L5.29181 34.6085C5.93095 34.2848 6.61396 34.0563 7.31919 33.9301V35.4905L6.04557 36.1271ZM1.29321 41.1555C1.29231 39.8615 1.63355 38.5902 2.28233 37.4706L3.12772 38.4767C3.22117 38.588 3.3494 38.6646 3.49172 38.6941C3.63404 38.7236 3.78215 38.7043 3.91214 38.6393L8.25363 36.4685C8.361 36.4148 8.45129 36.3323 8.51439 36.2301C8.5775 36.128 8.61092 36.0103 8.61093 35.8903V33.7749L9.20211 33.7169L15.7007 40.2273C15.8209 40.3449 15.9819 40.4117 16.1501 40.4138C16.3183 40.416 16.4808 40.3533 16.6041 40.2388L17.7462 39.1521L18.998 40.6726L16.8978 46.005H6.94971V43.6033C6.94971 43.4318 6.88158 43.2674 6.76032 43.1461C6.63906 43.0249 6.47459 42.9567 6.3031 42.9567C6.13161 42.9567 5.96714 43.0249 5.84588 43.1461C5.72462 43.2674 5.6565 43.4318 5.6565 43.6033V46.005H1.29321V41.1555ZM18.2897 46.005L20.1818 41.2017H20.5979L22.49 46.005H18.2897ZM39.5722 46.005H35.1199V43.6033C35.1199 43.4318 35.0517 43.2674 34.9305 43.1461C34.8092 43.0249 34.6448 42.9567 34.4733 42.9567C34.3018 42.9567 34.1373 43.0249 34.016 43.1461C33.8948 43.2674 33.8267 43.4318 33.8267 43.6033V46.005H23.8782L21.8981 40.98C21.9022 40.9752 21.9073 40.9718 21.9114 40.967L23.4049 39.1525L24.547 40.2391C24.6701 40.3537 24.8326 40.4164 25.0008 40.4143C25.1689 40.4122 25.3298 40.3453 25.45 40.2277L31.9238 33.7421L32.1643 33.7657V35.8903C32.1643 36.0104 32.1978 36.1281 32.261 36.2302C32.3241 36.3324 32.4145 36.4149 32.522 36.4685L36.8635 38.6393C36.9934 38.7042 37.1415 38.7234 37.2837 38.6939C37.4259 38.6644 37.5541 38.5879 37.6475 38.4767L38.5461 37.4052C39.2184 38.54 39.5724 39.835 39.5711 41.154L39.5722 46.005Z" fill="#1C3867"/>
</svg>
