<svg width="43" height="41" viewBox="0 0 43 41" fill="none" xmlns="http://www.w3.org/2000/svg">
<path d="M32.3581 13.3661L32.4796 8.44016C32.4901 8.01394 32.1401 7.66985 31.6978 7.67159L29.1353 7.68169L29.299 1.04491C29.3095 0.618688 28.9595 0.274602 28.5172 0.276345L1.93068 0.381121C1.4884 0.382864 1.12136 0.729776 1.11084 1.156L0.928081 8.5645C0.917566 8.99072 1.26756 9.3348 1.70984 9.33306L4.2724 9.32296L4.12771 15.188L1.56515 15.1981C1.12287 15.1999 0.755832 15.5468 0.745317 15.973L0.379789 30.79C0.369275 31.2162 0.719269 31.5603 1.16155 31.5586L14.2684 31.5069C16.2819 36.3897 21.2199 39.8133 27.062 39.7903C29.4906 39.7807 31.9003 39.166 34.0307 38.0127C34.4209 37.8015 34.5683 37.3301 34.3598 36.96C34.1513 36.5898 33.6659 36.4609 33.2758 36.6722C31.3886 37.6939 29.253 38.2383 27.1001 38.2468C20.2117 38.274 14.7408 32.8955 14.9046 26.2572C15.0684 19.619 20.8057 14.1963 27.6941 14.1692C34.5825 14.142 40.0533 19.5205 39.8896 26.1588C39.8384 28.2335 39.2315 30.281 38.1347 32.0797C37.9079 32.4516 38.032 32.9219 38.4118 33.1301C38.7916 33.3383 39.2834 33.2055 39.5102 32.8337C40.7484 30.8032 41.4334 28.4928 41.4911 26.1525C41.6372 20.2308 37.8086 15.1986 32.3581 13.3661ZM2.69341 1.9214L27.6784 1.82294L27.5337 7.688L2.54872 7.78647L2.69341 1.9214ZM2.00043 30.012L2.14511 24.1469L13.5354 24.102C13.4008 24.8064 13.3211 25.5282 13.303 26.2635C13.2713 27.5472 13.4265 28.7891 13.7445 29.9657L2.00043 30.012ZM13.9272 22.5572L2.18319 22.6035L2.32788 16.7384L17.6411 16.6781C15.9396 18.2959 14.6436 20.3102 13.9272 22.5572ZM19.5771 15.1271L19.5362 15.1273L5.72931 15.1817L5.874 9.31665L30.8589 9.21819L30.7673 12.9336C29.792 12.7287 28.7767 12.6216 27.7321 12.6257C24.7223 12.6376 21.9075 13.5631 19.5771 15.1271Z" fill="#263959"/>
<path d="M27.4717 16.22C27.0294 16.2217 26.6624 16.5686 26.6519 16.9948C26.6413 17.4211 26.9913 17.7651 27.4336 17.7634C32.3791 17.7439 36.307 21.6053 36.1894 26.3711C36.1789 26.7974 36.5289 27.1414 36.9712 27.1397C37.4134 27.138 37.7805 26.791 37.791 26.3648C37.9295 20.748 33.3003 16.197 27.4717 16.22Z" fill="#263959"/>
<path d="M27.3022 35.088C22.3567 35.1075 18.4289 31.246 18.5464 26.4802C18.5569 26.054 18.2069 25.7099 17.7647 25.7117C17.3224 25.7134 16.9553 26.0603 16.9448 26.4865C16.8063 32.1034 21.4355 36.6543 27.2641 36.6314C27.7064 36.6297 28.0735 36.2827 28.084 35.8565C28.0945 35.4303 27.7445 35.0862 27.3022 35.088Z" fill="#263959"/>
<path d="M27.4492 23.1773C28.2763 23.1745 28.9358 23.7264 28.9193 24.4075C28.9088 24.8372 29.2631 25.1842 29.7105 25.1827C30.158 25.1812 30.5292 24.8316 30.5397 24.402C30.571 23.1136 29.6161 22.0301 28.2949 21.7146L28.3014 21.4443C28.3119 21.0146 27.9576 20.6676 27.5101 20.6691C27.0627 20.6706 26.6915 21.0201 26.681 21.4498L26.6745 21.7202C25.3376 22.0447 24.33 23.1348 24.2987 24.4233C24.2613 25.9623 25.6307 27.2096 27.3513 27.2038C28.1785 27.201 28.838 27.7528 28.8214 28.434C28.8049 29.1151 28.1184 29.6715 27.2913 29.6744C26.4642 29.6772 25.8047 29.1253 25.8212 28.4442C25.8317 28.0145 25.4774 27.6675 25.0299 27.669C24.5825 27.6705 24.2113 28.02 24.2008 28.4497C24.1695 29.7381 25.1244 30.8215 26.4456 31.1371L26.4391 31.4074C26.4286 31.8371 26.7829 32.1841 27.2303 32.1826C27.6778 32.1811 28.049 31.8316 28.0595 31.4019L28.066 31.1315C29.4029 30.807 30.4105 29.7169 30.4418 28.4284C30.4792 26.8894 29.1098 25.642 27.3891 25.6479C26.562 25.6507 25.9025 25.0989 25.9191 24.4177C25.9356 23.7365 26.6221 23.1801 27.4492 23.1773Z" fill="#263959"/>
<path d="M35.5932 4.49962L37.0346 4.49393L37.0003 5.88309C36.9898 6.30933 37.3398 6.65343 37.7821 6.65169C38.2244 6.64994 38.5914 6.30301 38.6019 5.87677L38.6362 4.4876L40.0777 4.48191C40.5199 4.48017 40.887 4.13324 40.8975 3.707C40.908 3.28075 40.558 2.93665 40.1157 2.9384L38.6743 2.94409L38.7086 1.55492C38.7191 1.12868 38.3691 0.784582 37.9268 0.786328C37.4845 0.788074 37.1175 1.135 37.107 1.56125L37.0727 2.95041L35.6313 2.9561C35.189 2.95785 34.8219 3.30478 34.8114 3.73102C34.8009 4.15726 35.1509 4.50136 35.5932 4.49962Z" fill="#263959"/>
<path d="M7.79153 36.2612L6.35009 36.2668L6.38437 34.8777C6.39489 34.4514 6.04489 34.1073 5.60261 34.1091C5.16033 34.1108 4.79329 34.4578 4.78277 34.884L4.74849 36.2732L3.30705 36.2789C2.86477 36.2806 2.49772 36.6275 2.48721 37.0538C2.47669 37.48 2.82668 37.8241 3.26896 37.8224L4.7104 37.8167L4.67612 39.2058C4.66561 39.6321 5.0156 39.9762 5.45788 39.9744C5.90016 39.9727 6.26721 39.6258 6.27773 39.1995L6.312 37.8104L7.75344 37.8047C8.19573 37.8029 8.56277 37.456 8.57329 37.0297C8.58381 36.6035 8.23381 36.2594 7.79153 36.2612Z" fill="#263959"/>
<path d="M36.5225 34.9949C36.3119 34.9957 36.1032 35.0791 35.9507 35.2232C35.7982 35.3673 35.7077 35.5668 35.7026 35.7697C35.6976 35.9727 35.7784 36.1714 35.9238 36.3144C36.0692 36.4573 36.2738 36.5391 36.4844 36.5383C36.695 36.5374 36.9037 36.454 37.0562 36.3099C37.2087 36.1658 37.2993 35.9664 37.3043 35.7634C37.3093 35.5605 37.2285 35.3617 37.0831 35.2188C36.9377 35.0758 36.7331 34.9941 36.5225 34.9949Z" fill="#263959"/>
</svg>
