<svg width="122" height="51" viewBox="0 0 122 51" fill="none" xmlns="http://www.w3.org/2000/svg">
<path d="M8.40329 31.2672C8.16308 31.363 7.92478 31.4588 7.68265 31.5546C6.06431 32.1984 4.48393 32.9341 2.9492 33.7579C2.4171 34.0453 1.86394 34.1258 1.28685 33.9169C0.795899 33.7378 0.42553 33.4092 0.256137 32.9159C0.0363046 32.336 -0.0437024 31.7124 0.0226227 31.0957C0.0526138 30.7997 0.144871 30.5134 0.293325 30.2557C0.441779 29.998 0.643066 29.7746 0.883945 29.6003C1.15878 29.4003 1.45467 29.231 1.76632 29.0955C4.90823 27.7208 8.14776 26.6163 11.4323 25.6468C11.4705 25.633 11.5095 25.6215 11.549 25.6123C11.6277 25.5979 11.7019 25.5652 11.7657 25.517C11.8295 25.4688 11.8811 25.4063 11.9165 25.3345C13.0353 23.5 14.1435 21.6588 15.2891 19.8406C17.629 16.1275 20.0742 12.4834 22.6831 8.95424C24.0535 7.10153 25.468 5.28427 27.0212 3.57909C27.7534 2.77535 28.5056 1.98886 29.388 1.34511C29.6767 1.13666 29.9843 0.955767 30.3067 0.804815C30.8809 0.532753 31.4839 0.725306 31.7882 1.31541C31.8887 1.50701 31.9863 1.70626 32.0753 1.90648C32.2823 2.39269 32.5681 2.84131 32.9213 3.23422C32.9816 3.29936 33.0342 3.37217 33.0917 3.44018C33.5702 4.00826 33.6927 4.66159 33.5644 5.38006C33.4355 6.04107 33.2395 6.6872 32.9797 7.30845C32.4849 8.54327 31.993 9.77904 31.4695 11.0005C30.6453 12.941 29.9733 14.9428 29.4597 16.9877C29.0648 18.5352 28.6724 20.0829 28.2826 21.631C28.2635 21.7067 28.2501 21.7833 28.2281 21.8906C28.4731 21.8542 28.6865 21.8216 28.898 21.7948C30.5804 21.5515 32.2629 21.3034 33.9463 21.0668C34.7885 20.948 35.6326 20.8436 36.4767 20.742C37.0796 20.6692 37.6567 20.742 38.1869 21.0687C38.4773 21.2358 38.7087 21.4893 38.8488 21.794C38.9889 22.0987 39.0308 22.4395 38.9687 22.7691C38.903 23.1538 38.7698 23.5238 38.5754 23.8621C37.3265 26.0712 36.0871 28.2889 35.0277 30.5957C34.733 31.2356 34.4057 31.864 34.2114 32.5451C34.1425 32.7856 34.0994 33.0346 34.0487 33.2799C34.0369 33.343 34.0321 33.4073 34.0343 33.4715C34.0401 33.7723 34.198 33.8987 34.4746 33.7886C34.6797 33.7136 34.8704 33.6038 35.0382 33.4638C35.4651 33.0806 35.8785 32.6783 36.2824 32.2644C37.737 30.7595 38.9573 29.0715 40.0971 27.3223C40.5134 26.6843 40.9077 26.0319 41.3134 25.3862C41.7604 24.6773 42.0791 23.9023 42.4552 23.158C42.7476 22.6045 42.9938 22.0278 43.1911 21.4337C43.2578 21.234 43.3052 21.0283 43.3328 20.8196C43.3482 20.625 43.4113 20.4372 43.5165 20.2728C43.6216 20.1084 43.7656 19.9725 43.9357 19.877C44.754 19.3894 45.621 19.0876 46.5886 19.1623C46.7339 19.1733 46.8775 19.2013 47.0164 19.2457C47.7734 19.4842 48.1189 20.0963 47.9169 20.9077C47.8279 21.266 47.6604 21.6051 47.5265 21.9519C47.4869 22.0311 47.4619 22.1168 47.4528 22.2048C47.6643 21.9749 47.8758 21.7431 48.0882 21.5141C48.7227 20.8292 49.3678 20.1548 50.098 19.5695C50.3122 19.3961 50.5383 19.238 50.7746 19.0962C51.3747 18.7399 52.0092 18.6412 52.6886 18.8682C53.2146 19.0377 53.6989 19.3165 54.1098 19.6863C54.2295 19.7958 54.3382 19.9168 54.4343 20.0475C54.8888 20.6635 54.8554 21.2641 54.3491 21.8379C53.8355 22.419 53.1657 22.84 52.4197 23.0507C51.767 23.2423 51.1048 23.3975 50.453 23.591C49.965 23.7366 49.4807 23.8995 49.007 24.0872C48.2241 24.3986 47.5714 24.9149 47.0192 25.5376C45.1425 27.6451 43.6323 29.9845 42.7126 32.6735C42.3628 33.6774 42.1331 34.7193 42.0284 35.7773C42.0054 36.0197 41.9968 36.263 41.9642 36.5034C41.9532 36.5968 41.9217 36.6865 41.8721 36.7664C41.8225 36.8462 41.7559 36.914 41.6771 36.9652C41.0531 37.3771 40.4072 37.7488 39.6674 37.9164C39.4549 37.9674 39.237 37.9918 39.0185 37.9892C38.4194 37.972 37.9907 37.676 37.7457 37.1271C37.4921 36.5333 37.4189 35.8779 37.5351 35.2427C37.6107 34.7638 37.7485 34.2953 37.8596 33.8221C37.8836 33.75 37.8905 33.6732 37.8796 33.5979C37.8337 33.6602 37.7839 33.7196 37.7438 33.7828C36.8958 35.0282 35.9905 36.2189 34.9349 37.2928C34.4088 37.8455 33.8241 38.3392 33.1912 38.7652C32.7471 39.0526 32.282 39.3007 31.7509 39.385C31.2044 39.4712 30.6694 39.4568 30.167 39.181C29.6119 38.8754 29.3114 38.3801 29.1372 37.7938C28.9324 37.1041 28.9315 36.399 29.0119 35.694C29.1851 34.166 29.6732 32.7243 30.2407 31.3055C31.1326 29.0754 32.1796 26.9151 33.2591 24.7712C33.306 24.6754 33.3491 24.5796 33.3912 24.4838C33.3969 24.4714 33.3912 24.4541 33.3912 24.4168C33.1204 24.4685 32.8505 24.5126 32.5844 24.57C30.9297 24.9226 29.276 25.2809 27.6203 25.6238C27.5325 25.6355 27.4512 25.6763 27.3893 25.7396C27.3273 25.803 27.2884 25.8853 27.2787 25.9735C26.8691 27.9172 26.4987 29.8686 26.2499 31.841C26.0585 33.3853 25.8546 34.9295 25.6699 36.4747C25.5905 37.1347 25.5417 37.7986 25.4785 38.4606C25.4326 38.9453 25.3637 39.4262 25.157 39.8755C25.066 40.0832 24.9349 40.2708 24.7711 40.4275C24.6074 40.5842 24.4142 40.7069 24.2028 40.7884C23.7191 40.9908 23.1867 41.0468 22.6716 40.9494C21.9854 40.82 21.5231 40.3851 21.1853 39.795C20.8475 39.2049 20.6857 38.5314 20.6111 37.8494C20.5039 36.8675 20.5699 35.8884 20.6848 34.9123C20.9355 32.7904 21.4188 30.7135 21.8973 28.6357C22.0093 28.1461 22.1328 27.6585 22.2495 27.17C22.2658 27.1 22.2754 27.0291 22.2935 26.9333C22.2184 26.9404 22.1437 26.9513 22.0696 26.9659C19.8129 27.5496 17.5687 28.1787 15.3369 28.8531C15.2643 28.8756 15.1974 28.9135 15.1407 28.9643C15.0841 29.015 15.039 29.0774 15.0087 29.1472C13.9719 31.067 12.9766 33.0075 12.0228 34.9688C10.6542 37.7842 9.34979 40.6284 8.17073 43.5292C7.61757 44.8885 7.07781 46.2536 6.67012 47.6657C6.55145 48.0785 6.45861 48.4981 6.33994 48.911C6.21673 49.3747 6.01191 49.8126 5.7351 50.2043C5.27477 50.8289 4.64505 51.0741 3.89857 50.8672C2.71473 50.5386 1.8582 49.8278 1.45146 48.6418C1.25182 48.0775 1.24542 47.4628 1.43328 46.8945C1.70412 46.0706 1.99122 45.2516 2.31087 44.4459C3.84211 40.5911 5.59346 36.8397 7.49699 33.1563C7.76495 32.638 8.04632 32.1265 8.31811 31.6092C8.36883 31.5134 8.40425 31.409 8.44731 31.3084L8.40329 31.2672ZM17.9621 23.9158L23.3874 22.748C24.6947 17.9582 26.1283 13.2143 27.9811 8.60458C24.2899 13.4615 21.0561 18.6134 17.9621 23.9158Z" fill="#E32526"/>
<path d="M78.8618 21.9064C79.1996 21.8595 79.4953 21.8106 79.792 21.7761C80.5882 21.6755 81.3874 21.5845 82.1894 21.6976C82.454 21.7313 82.7138 21.7956 82.9636 21.8892C83.3569 22.0396 83.488 22.2992 83.4258 22.7159C83.3945 22.9652 83.3501 23.2127 83.2928 23.4574C83.2343 23.7202 83.1087 23.9635 82.9285 24.1634C82.7482 24.3633 82.5193 24.5132 82.264 24.5983C81.8672 24.7374 81.4626 24.8536 81.0524 24.946C80.1289 25.1549 79.2006 25.3445 78.277 25.5419C78.2139 25.5553 78.1526 25.5754 78.0512 25.6022C77.9833 25.7735 77.9251 25.9484 77.877 26.1263C77.5373 27.7203 77.231 29.3211 77.0032 30.9352C76.8348 32.1231 76.696 33.3148 76.5448 34.5056C76.4424 35.3103 76.3333 36.113 76.2405 36.9187C76.184 37.4101 76.162 37.9054 76.1084 38.3968C76.0787 38.736 76.0256 39.0728 75.9495 39.4046C75.7237 40.2936 75.2251 40.8272 74.1312 40.9613C73.8498 40.9949 73.565 40.9862 73.2861 40.9355C72.5971 40.81 72.1377 40.3607 71.8075 39.7734C71.5118 39.2213 71.3268 38.6167 71.263 37.9935C71.1673 37.208 71.2046 36.4225 71.284 35.6379C71.5453 33.0265 72.0956 30.4649 72.6928 27.9167C72.7761 27.5632 72.8622 27.2107 72.9541 26.8304C72.8584 26.8428 72.7914 26.8457 72.7253 26.862C70.5002 27.4367 68.2828 28.0441 66.0845 28.7175C66.0114 28.7372 65.9433 28.7725 65.885 28.8209C65.8267 28.8694 65.7795 28.9299 65.7467 28.9982C65.0548 30.3106 64.3332 31.6077 63.669 32.9345C61.9591 36.35 60.3778 39.8245 58.925 43.3582C58.3585 44.729 57.8053 46.1056 57.3632 47.5234C57.2407 47.9181 57.1507 48.3223 57.0416 48.7208C56.9268 49.1949 56.7371 49.6477 56.4798 50.062C55.9535 50.8562 55.2883 51.1062 54.382 50.8188C53.3925 50.5055 52.6412 49.8982 52.2153 48.9316C51.94 48.3008 51.888 47.5948 52.068 46.9304C52.2967 46.0165 52.6422 45.1409 52.9886 44.2663C53.9456 41.8522 55.0299 39.4956 56.165 37.163C57.0981 35.247 58.0608 33.3426 59.0102 31.4334C59.0456 31.3615 59.082 31.2897 59.1346 31.1843C59.0738 31.1934 59.0137 31.2065 58.9547 31.2236C57.1838 31.9264 55.4579 32.7377 53.7868 33.653C53.5794 33.7786 53.3573 33.878 53.1255 33.949C52.7378 34.0563 52.3244 34.0197 51.9616 33.846C51.5987 33.6722 51.3109 33.373 51.1511 33.0035C50.8489 32.3151 50.7635 31.5509 50.9061 30.8126C50.961 30.5285 51.0736 30.2587 51.2369 30.0199C51.4002 29.7812 51.6107 29.5785 51.8555 29.4245C52.0797 29.2782 52.3153 29.1501 52.5599 29.0413C55.2642 27.8327 58.0423 26.7967 60.8774 25.9394C61.3262 25.8015 61.7741 25.6626 62.2268 25.539C62.3078 25.5184 62.3836 25.4812 62.4495 25.4298C62.5154 25.3783 62.5699 25.3138 62.6096 25.2401C64.0451 22.9142 65.4625 20.5777 66.9286 18.2719C69.0571 14.9247 71.3054 11.6594 73.6737 8.47572C74.937 6.78683 76.2414 5.12954 77.6645 3.57093C78.2694 2.89264 78.9191 2.25575 79.6092 1.66458C79.9744 1.34226 80.3801 1.06916 80.816 0.852225C81.0536 0.726629 81.3228 0.673667 81.5903 0.699911C81.7278 0.713377 81.861 0.756057 81.9808 0.825107C82.1006 0.894157 82.2043 0.987989 82.2851 1.10034C82.3829 1.23955 82.4696 1.38625 82.5444 1.53909C82.6688 1.78432 82.7798 2.03723 82.9014 2.28439C83.0795 2.6317 83.3028 2.95383 83.5656 3.24235C83.8689 3.58626 84.1292 3.95795 84.2135 4.42161C84.2737 4.81565 84.2555 5.21773 84.1599 5.60469C84.0163 6.22939 83.8194 6.84059 83.5713 7.43154C82.9441 8.97961 82.3122 10.5255 81.6754 12.0691C81.0256 13.6554 80.5423 15.2955 80.1107 16.9547C79.7011 18.5229 79.3097 20.0959 78.9106 21.6669C78.8934 21.7244 78.8828 21.7982 78.8618 21.9064ZM78.6455 8.60026L78.6043 8.58397C78.5584 8.63953 78.5086 8.69414 78.4675 8.75162C78.143 9.18749 77.8167 9.62241 77.498 10.0612C75.7843 12.4235 74.1532 14.8424 72.6047 17.3177C71.3099 19.3946 70.0552 21.4974 68.7843 23.5886C68.7412 23.6595 68.7058 23.7342 68.6541 23.8329C68.7002 23.8323 68.7462 23.8291 68.792 23.8233C70.4543 23.4756 72.1167 23.123 73.7809 22.7839C73.8588 22.7769 73.9321 22.7441 73.9891 22.6906C74.0462 22.6372 74.0837 22.5661 74.0958 22.4889C74.5542 20.868 75.0059 19.2442 75.493 17.631C76.4013 14.6278 77.3956 11.6543 78.5909 8.75162C78.612 8.70468 78.6273 8.65295 78.6455 8.60026Z" fill="#E32526"/>
<path d="M101.16 30.7806C101.032 30.9645 100.925 31.1139 100.823 31.2653C99.7958 32.7668 98.5893 34.1373 97.2304 35.3462C96.6265 35.8913 95.9805 36.3799 95.2292 36.7094C94.6948 36.9537 94.1031 37.0449 93.52 36.9729C92.6749 36.8617 92.1247 36.3703 91.8423 35.5762C91.628 34.9765 91.6021 34.3547 91.6586 33.7263C91.7801 32.3689 92.2223 31.0996 92.7333 29.8513C93.3688 28.2956 94.1363 26.8021 94.923 25.3192C95.4819 24.2654 96.0714 23.2299 96.6217 22.1733C96.9327 21.5774 97.2074 20.9614 97.483 20.3455C97.5979 20.0688 97.6917 19.7838 97.7634 19.4929C97.8157 19.2531 97.9579 19.0426 98.1606 18.9047C98.7348 18.5215 99.3444 18.2216 100.029 18.1258C100.362 18.0725 100.703 18.0891 101.03 18.1747C101.357 18.2603 101.663 18.413 101.927 18.623C102.48 19.0551 102.638 19.6346 102.451 20.2985C102.375 20.5547 102.271 20.8017 102.141 21.0352C101.771 21.7198 101.393 22.4 101.005 23.0757C100.455 24.0336 99.8737 24.9696 99.3378 25.9323C98.6563 27.1585 97.9979 28.3991 97.3462 29.6387C97.1421 30.0274 96.9954 30.4436 96.9107 30.8745C96.8859 30.9932 96.8744 31.1143 96.8763 31.2356C96.882 31.4703 97.0179 31.5814 97.2467 31.523C97.4099 31.4764 97.566 31.4077 97.7108 31.319C98.0818 31.0854 98.4206 30.8043 98.7186 30.4826C99.5301 29.6387 100.22 28.6951 100.938 27.7735C102.469 25.8039 104 23.8286 105.569 21.882C106.553 20.6422 107.651 19.4969 108.848 18.4611C109.774 17.667 110.743 16.9341 111.851 16.4092C112.403 16.1476 112.973 15.9551 113.596 15.9417C114.703 15.9158 115.483 16.55 115.854 17.4083C115.925 17.5721 115.987 17.7398 116.046 17.9065C116.105 18.0712 116.198 18.2216 116.319 18.3478C116.44 18.4741 116.586 18.5734 116.748 18.6393C117.046 18.7667 117.348 18.8865 117.634 19.0378C117.892 19.172 118.137 19.3305 118.365 19.5111C118.509 19.6194 118.617 19.769 118.675 19.9401C118.732 20.1112 118.736 20.2956 118.686 20.469C118.632 20.7134 118.55 20.9508 118.443 21.177C118.243 21.5659 118.008 21.9366 117.784 22.3131C116.905 23.7624 116.106 25.2591 115.392 26.7964C115.195 27.2313 115.009 27.6758 114.956 28.1577C114.94 28.2938 114.943 28.4317 114.968 28.5667C115.048 28.9834 115.43 29.2191 115.829 29.0696C116.085 28.9689 116.325 28.8342 116.545 28.6692C117.081 28.259 117.554 27.773 117.95 27.2265C118.443 26.5732 118.898 25.8921 119.372 25.2244C119.495 25.0343 119.633 24.8543 119.785 24.686C119.91 24.5519 120.065 24.449 120.237 24.3855C120.409 24.322 120.594 24.2996 120.776 24.3201C121.255 24.3651 121.512 24.7368 121.371 25.1975C121.312 25.374 121.243 25.5473 121.166 25.7168C120.824 26.5159 120.401 27.2779 119.904 27.991C119 29.3303 117.946 30.5622 116.763 31.6629C115.937 32.4158 115.041 33.0605 113.978 33.4523C113.41 33.6728 112.804 33.7792 112.194 33.7656C111.237 33.7302 110.548 33.1908 110.289 32.2798C110.243 32.116 110.193 31.9531 110.155 31.7884C110.077 31.478 109.921 31.4195 109.677 31.6303C109.495 31.7917 109.321 31.9621 109.156 32.1409C108.513 32.8067 107.858 33.459 107.112 34.0108C106.501 34.463 105.847 34.8289 105.102 35.0042C104.534 35.1519 103.939 35.1555 103.37 35.0148C102.457 34.7734 101.851 34.1823 101.487 33.3259C101.268 32.8 101.158 32.2354 101.162 31.6657C101.159 31.3908 101.16 31.113 101.16 30.7806ZM105.891 30.2748C105.91 30.4263 105.94 30.5762 105.981 30.7231C106.014 30.8383 106.091 30.936 106.195 30.9952C106.299 31.0545 106.423 31.0706 106.538 31.0402C106.666 31.0202 106.789 30.9763 106.901 30.9109C107.212 30.7224 107.511 30.5138 107.795 30.2863C108.596 29.6061 109.266 28.8005 109.885 27.9565C111.176 26.1771 112.297 24.2807 113.235 22.292C113.479 21.7814 113.669 21.2459 113.874 20.7171C113.96 20.4881 113.991 20.2419 113.964 19.9987C113.937 19.7247 113.789 19.5954 113.517 19.5906C113.312 19.5879 113.111 19.6499 112.943 19.7678C112.617 19.9786 112.303 20.2076 112.002 20.4537C111.22 21.1366 110.514 21.9024 109.897 22.7375C108.954 23.997 108.108 25.326 107.365 26.7131C106.89 27.5525 106.48 28.4268 106.136 29.3283C106.012 29.6311 105.93 29.9496 105.891 30.2748Z" fill="#E32526"/>
<path d="M90.7175 19.8435C91.4735 19.8348 92.1693 19.9211 92.8344 20.1864C93.2934 20.3548 93.7019 20.6377 94.0211 21.0084C94.4393 21.5142 94.5724 22.0717 94.359 22.7116C94.1143 23.42 93.7014 24.0584 93.156 24.572C92.8918 24.8306 92.2631 24.9102 91.9425 24.7339C91.8528 24.6796 91.7756 24.6072 91.7156 24.5212C91.5836 24.3363 91.4697 24.138 91.3405 23.9531C91.2247 23.7865 91.107 23.6207 90.9768 23.4665C90.8212 23.2719 90.6177 23.1213 90.3864 23.0292C90.155 22.9372 89.9037 22.907 89.6571 22.9415C88.8733 23.0316 88.2062 23.3314 87.7813 24.0403C87.5956 24.3558 87.4725 24.7041 87.4186 25.0663C87.3531 25.4756 87.3531 25.8928 87.4186 26.3021C87.5047 26.7911 87.7091 27.2515 88.0139 27.6432C88.3316 28.0734 88.6704 28.4882 89.0015 28.9077C89.391 29.3992 89.7537 29.9088 89.9585 30.5056C90.0601 30.7704 90.1264 31.0474 90.1557 31.3295C90.2532 32.5828 90.0146 33.8395 89.4647 34.9698C88.8905 36.1318 88.012 37.0074 86.9018 37.6607C85.8558 38.2757 84.7207 38.6359 83.5273 38.8342C82.2401 39.0478 81.0285 38.8122 79.8744 38.2403C79.3001 37.9655 78.8058 37.548 78.4388 37.0275C78.2242 36.7121 78.0715 36.3587 77.989 35.9862C77.9427 35.7536 77.9606 35.5129 78.0407 35.2897C78.1409 34.9479 78.263 34.6129 78.4063 34.2867C78.6312 33.802 78.8848 33.3288 79.1384 32.8594C79.5097 32.1668 80.1375 32.3497 80.4648 32.7578C80.841 33.2162 81.2813 33.6179 81.7721 33.9505C82.2736 34.2992 82.8057 34.5875 83.4106 34.7169C84.0499 34.8567 84.6337 34.7657 85.1332 34.3078C85.4615 34.007 85.5591 33.6372 85.4098 33.2253C85.3167 32.9752 85.194 32.7372 85.0442 32.5164C84.8423 32.2127 84.6126 31.9282 84.3839 31.6437C83.7524 30.8741 83.3425 29.9467 83.1981 28.9614C83.0782 28.0989 83.1398 27.2208 83.379 26.3835C83.7794 24.8702 84.5418 23.4771 85.6003 22.3246C86.4692 21.38 87.4885 20.6194 88.7077 20.1644C89.3518 19.9331 90.0334 19.8243 90.7175 19.8435Z" fill="#E32526"/>
<path d="M100.194 13.1692C100.202 12.7142 100.507 12.0542 100.995 11.4746C101.554 10.7913 102.328 10.3184 103.19 10.1335C103.801 10.0032 104.399 10.031 104.959 10.3423C105.559 10.6766 105.872 11.2045 105.921 11.875C105.973 12.6031 105.729 13.2497 105.309 13.8293C104.732 14.6574 103.858 15.2303 102.869 15.4281C102.431 15.5251 101.977 15.5063 101.549 15.3735C100.689 15.0986 100.177 14.3897 100.194 13.1692Z" fill="#E32526"/>
<path d="M39.6778 17.5731C39.1552 17.5884 38.6949 17.508 38.2882 17.2426C37.6087 16.7991 37.3474 16.1476 37.4269 15.3602C37.5168 14.43 37.9953 13.702 38.6815 13.1004C39.2528 12.5878 39.9672 12.2625 40.7286 12.1683C41.1809 12.1055 41.6417 12.1719 42.0579 12.3598C42.7642 12.6817 43.1795 13.3772 43.1556 14.18C43.135 14.809 42.9192 15.416 42.5383 15.9168C41.9249 16.7512 41.121 17.3058 40.097 17.5156C39.9429 17.5482 39.7888 17.5587 39.6778 17.5731Z" fill="#E32526"/>
</svg>
