<svg width="43" height="41" viewBox="0 0 43 41" fill="none" xmlns="http://www.w3.org/2000/svg">
<path d="M38.2911 25.0298L38.5489 14.5796L38.625 11.4948C38.7026 8.34796 36.1093 5.79836 32.8439 5.81124L27.0821 5.83396L27.1337 3.74432C27.1808 1.83483 25.6071 0.287756 23.6257 0.29557L16.4079 0.324033C14.4266 0.331769 12.7762 1.89163 12.7291 3.80112L12.6776 5.89084L6.91574 5.91356C3.65038 5.92644 0.930703 8.49699 0.853065 11.6438L0.776957 14.7286L0.426859 28.9187C0.349221 32.0655 2.94258 34.6151 6.20793 34.6022L10.9828 34.5833L10.979 34.7376C10.9685 35.1634 11.3182 35.5074 11.7602 35.5056L13.9876 35.4969L13.9 39.0444C13.8895 39.4702 14.2393 39.8142 14.6813 39.8124L32.5803 39.7418C33.4931 39.7382 34.3954 39.5968 35.262 39.3216C35.6853 39.187 35.9248 38.7505 35.7969 38.3463C35.6691 37.9422 35.2225 37.7238 34.7992 37.8579C34.0952 38.0816 33.3615 38.1965 32.6184 38.1994C28.7794 38.2146 25.7305 35.217 25.8218 31.5174C25.913 27.8178 29.1105 24.7957 32.9495 24.7806C36.7885 24.7654 39.8374 27.7629 39.7462 31.4625C39.7285 32.1787 39.5948 32.8836 39.349 33.5577C39.2012 33.963 39.4192 34.3977 39.8358 34.5289C40.2525 34.6598 40.71 34.4379 40.8579 34.0326C41.1605 33.2028 41.325 32.3359 41.3467 31.4561C41.4108 28.8545 40.2119 26.5356 38.2911 25.0298ZM14.3296 3.79481C14.3557 2.73587 15.271 1.87077 16.3699 1.86643L23.5877 1.83797C24.6865 1.83364 25.5593 2.69169 25.5332 3.75063L25.4816 5.84035L14.2781 5.88453L14.3296 3.79481ZM2.45357 11.6374C2.51023 9.34115 4.49485 7.46528 6.87768 7.45588L32.8059 7.35364C35.1887 7.34424 37.0812 9.20482 37.0245 11.5011L36.9484 14.5859C36.9001 16.5419 35.2095 18.1399 33.1797 18.1479L30.0587 18.1602L30.0816 17.2348C30.1151 15.874 28.9937 14.7715 27.5816 14.777C26.1696 14.7826 24.9935 15.8942 24.9599 17.255L24.9371 18.1804L14.2137 18.2227L14.2365 17.2973C14.2701 15.9365 13.1487 14.8339 11.7366 14.8395C10.3246 14.8451 9.1485 15.9567 9.11492 17.3175L9.09209 18.2429L5.9711 18.2552C3.94134 18.2632 2.3292 16.6783 2.37746 14.7222L2.45357 11.6374ZM26.5604 17.2487C26.573 16.7384 27.014 16.3215 27.5436 16.3194C28.0731 16.3173 28.4936 16.7308 28.481 17.2411L28.3973 20.6344C28.3847 21.1447 27.9437 21.5615 27.4142 21.5636C26.8847 21.5657 26.4641 21.1522 26.4767 20.6419L26.5604 17.2487ZM10.7154 17.3111C10.728 16.8008 11.169 16.384 11.6986 16.3819C12.2281 16.3798 12.6486 16.7933 12.636 17.3036L12.5523 20.6968C12.5397 21.2071 12.0987 21.624 11.5692 21.6261C11.0397 21.6282 10.6191 21.2147 10.6317 20.7044L10.7154 17.3111ZM12.667 31.1837L24.2404 31.138C24.231 31.2659 24.2244 31.3944 24.2212 31.5237C24.2007 32.3547 24.3095 33.1568 24.5291 33.913L12.5985 33.96L12.667 31.1837ZM24.5053 29.5948L15.7327 29.6293L15.8012 26.853L25.8692 26.8133C25.2502 27.6438 24.782 28.5838 24.5053 29.5948ZM27.6392 38.219L15.5196 38.2668L15.5881 35.4905L25.1609 35.4527C25.7554 36.5507 26.6062 37.4967 27.6392 38.219ZM27.3491 25.2652L15.039 25.3138C14.597 25.3155 14.2302 25.6623 14.2197 26.0881L14.1322 29.6357L11.9048 29.6444C11.4628 29.6462 11.0961 29.9929 11.0855 30.4188L11.0209 33.0409L6.24599 33.0597C3.86315 33.0691 1.97071 31.2085 2.02737 28.9123L2.28753 18.3673C3.21756 19.2567 4.5026 19.8033 5.93305 19.7977L9.05403 19.7854L9.0312 20.7108C8.99763 22.0716 10.1191 23.1741 11.5311 23.1685C12.9432 23.163 14.1192 22.0514 14.1528 20.6906L14.1757 19.7652L24.899 19.7229L24.8762 20.6483C24.8426 22.0091 25.9641 23.1116 27.3761 23.1061C28.7882 23.1005 29.9643 21.9889 29.9978 20.6281L30.0207 19.7027L33.1417 19.6904C34.5721 19.6847 35.8844 19.1279 36.8585 18.2309L36.7147 24.057C35.5953 23.5278 34.3308 23.2329 32.9875 23.2382C30.8535 23.2465 28.8809 24.0105 27.3491 25.2652Z" fill="#1C3867"/>
<path d="M32.7912 29.4035C33.3788 29.4015 33.8475 29.7843 33.836 30.2568C33.8255 30.686 34.1793 31.0328 34.6262 31.0312C35.0731 31.0297 35.4438 30.6804 35.4543 30.2513C35.4805 29.175 34.7136 28.264 33.6355 27.9586L33.6381 27.8506C33.6486 27.4214 33.2948 27.0747 32.8479 27.0762C32.401 27.0777 32.0302 27.427 32.0198 27.8562L32.0172 27.9642C30.924 28.2771 30.1128 29.1935 30.0866 30.2698C30.0542 31.5994 31.2318 32.6769 32.7117 32.6718C33.2992 32.6698 33.7679 33.0525 33.7564 33.525C33.7449 33.9975 33.2575 34.3837 32.67 34.3857C32.0825 34.3877 31.6139 34.0049 31.6254 33.5324C31.6358 33.1032 31.282 32.7564 30.8351 32.758C30.3882 32.7595 30.0175 33.1088 30.007 33.5379C29.9809 34.6143 30.7477 35.5253 31.8258 35.8306L31.8231 35.9386C31.8127 36.3678 32.1665 36.7146 32.6134 36.713C33.0603 36.7115 33.431 36.3622 33.4414 35.9331L33.4441 35.825C34.5372 35.5121 35.3486 34.5958 35.3747 33.5194C35.4071 32.1899 34.2295 31.1123 32.7495 31.1174C32.162 31.1195 31.6934 30.7367 31.7049 30.2642C31.7164 29.7917 32.2036 29.4056 32.7912 29.4035Z" fill="#1C3867"/>
<path d="M38.0835 36.5764C37.8722 36.5773 37.6645 36.6606 37.5121 36.8047C37.3589 36.9487 37.2692 37.148 37.2642 37.3509C37.2592 37.5537 37.3391 37.7524 37.4852 37.8953C37.6305 38.0381 37.8341 38.1198 38.0454 38.119C38.2558 38.1182 38.4643 38.0348 38.6167 37.8908C38.7691 37.7467 38.8589 37.5474 38.8639 37.3446C38.8689 37.1417 38.789 36.943 38.6437 36.8002C38.4983 36.6573 38.2939 36.5756 38.0835 36.5764Z" fill="#1C3867"/>
</svg>
