<svg width="35" height="45" viewBox="0 0 35 45" fill="none" xmlns="http://www.w3.org/2000/svg">
<mask id="path-1-inside-1_2325_5615" fill="white">
<path fill-rule="evenodd" clip-rule="evenodd" d="M0 37.0057V44.9678L17.5 34.6894L35 44.9678V44.9677V37.0057L32.2887 35.4133L17.5 26.7271V26.7273L0 37.0057Z"/>
</mask>
<path d="M0 44.9678L1.01289 46.6923L-2 48.4619V44.9678H0ZM0 37.0057H-2V35.8609L-1.01289 35.2811L0 37.0057ZM17.5 34.6894L16.4871 32.9649L17.5 32.37L18.5129 32.9649L17.5 34.6894ZM35 44.9678H37V48.4619L33.9871 46.6923L35 44.9678ZM35 37.0057L36.0129 35.2811L37 35.8609V37.0057H35ZM32.2887 35.4133L31.2758 37.1378L31.2758 37.1378L32.2887 35.4133ZM17.5 26.7271H15.5V23.233L18.5129 25.0026L17.5 26.7271ZM17.5 26.7273H19.5V27.8721L18.5129 28.4519L17.5 26.7273ZM-2 44.9678V37.0057H2V44.9678H-2ZM18.5129 36.4139L1.01289 46.6923L-1.01289 43.2432L16.4871 32.9649L18.5129 36.4139ZM33.9871 46.6923L16.4871 36.4139L18.5129 32.9649L36.0129 43.2432L33.9871 46.6923ZM37 44.9677V44.9678H33V44.9677H37ZM37 37.0057V44.9677H33V37.0057H37ZM33.3016 33.6887L36.0129 35.2811L33.9871 38.7302L31.2758 37.1378L33.3016 33.6887ZM18.5129 25.0026L33.3016 33.6887L31.2758 37.1378L16.4871 28.4517L18.5129 25.0026ZM15.5 26.7273V26.7271H19.5V26.7273H15.5ZM-1.01289 35.2811L16.4871 25.0028L18.5129 28.4519L1.01289 38.7302L-1.01289 35.2811Z" fill="#263959" mask="url(#path-1-inside-1_2325_5615)"/>
<mask id="path-3-inside-2_2325_5615" fill="white">
<path fill-rule="evenodd" clip-rule="evenodd" d="M0 23.6424V31.6045L17.5 21.3261L35 31.6045V23.6425V23.6424L26.1974 18.4723L17.5 13.3639V13.364L0 23.6424Z"/>
</mask>
<path d="M0 31.6045L1.01289 33.329L-2 35.0986V31.6045H0ZM0 23.6424H-2V22.4976L-1.01289 21.9179L0 23.6424ZM17.5 21.3261L16.4871 19.6016L17.5 19.0067L18.5129 19.6016L17.5 21.3261ZM35 31.6045H37V35.0986L33.9871 33.329L35 31.6045ZM35 23.6424L36.0129 21.9179L37 22.4976V23.6424H35ZM26.1974 18.4723L25.1845 20.1969L25.1845 20.1969L26.1974 18.4723ZM17.5 13.3639H15.5V9.86975L18.5129 11.6394L17.5 13.3639ZM17.5 13.364H19.5V14.5088L18.5129 15.0886L17.5 13.364ZM-2 31.6045V23.6424H2V31.6045H-2ZM18.5129 23.0507L1.01289 33.329L-1.01289 29.8799L16.4871 19.6016L18.5129 23.0507ZM33.9871 33.329L16.4871 23.0507L18.5129 19.6016L36.0129 29.8799L33.9871 33.329ZM37 23.6425V31.6045H33V23.6425H37ZM37 23.6424V23.6425H33V23.6424H37ZM27.2103 16.7478L36.0129 21.9179L33.9871 25.367L25.1845 20.1969L27.2103 16.7478ZM18.5129 11.6394L27.2103 16.7478L25.1845 20.1969L16.4871 15.0885L18.5129 11.6394ZM15.5 13.364V13.3639H19.5V13.364H15.5ZM-1.01289 21.9179L16.4871 11.6395L18.5129 15.0886L1.01289 25.367L-1.01289 21.9179Z" fill="#263959" mask="url(#path-3-inside-2_2325_5615)"/>
<mask id="path-5-inside-3_2325_5615" fill="white">
<path fill-rule="evenodd" clip-rule="evenodd" d="M0 10.2786V18.2407L17.5 7.96235L35 18.2407V10.2788V10.2786L26.1974 5.10855L17.5 0.000146866V0.000265121L0 10.2786Z"/>
</mask>
<path d="M0 18.2407L1.01289 19.9653L-2 21.7348V18.2407H0ZM0 10.2786H-2V9.13386L-1.01289 8.55409L0 10.2786ZM17.5 7.96235L16.4871 6.2378L17.5 5.6429L18.5129 6.2378L17.5 7.96235ZM35 18.2407H37V21.7348L33.9871 19.9653L35 18.2407ZM35 10.2786L36.0129 8.55409L37 9.13386V10.2786H35ZM26.1974 5.10855L25.1845 6.8331L25.1845 6.83309L26.1974 5.10855ZM17.5 0.000146866H15.5V-3.49402L18.5129 -1.72439L17.5 0.000146866ZM17.5 0.000265121H19.5V1.14504L18.5129 1.72481L17.5 0.000265121ZM-2 18.2407V10.2786H2V18.2407H-2ZM18.5129 9.6869L1.01289 19.9653L-1.01289 16.5162L16.4871 6.2378L18.5129 9.6869ZM33.9871 19.9653L16.4871 9.6869L18.5129 6.2378L36.0129 16.5162L33.9871 19.9653ZM37 10.2788V18.2407H33V10.2788H37ZM37 10.2786V10.2788H33V10.2786H37ZM27.2103 3.38401L36.0129 8.55409L33.9871 12.0032L25.1845 6.8331L27.2103 3.38401ZM18.5129 -1.72439L27.2103 3.38402L25.1845 6.83309L16.4871 1.72468L18.5129 -1.72439ZM15.5 0.000265121V0.000146866H19.5V0.000265121H15.5ZM-1.01289 8.55409L16.4871 -1.72428L18.5129 1.72481L1.01289 12.0032L-1.01289 8.55409Z" fill="#263959" mask="url(#path-5-inside-3_2325_5615)"/>
</svg>
