<svg width="46" height="43" viewBox="0 0 46 43" fill="none" xmlns="http://www.w3.org/2000/svg">
<path d="M24.9926 18.2564C25.6227 18.2543 26.1251 18.6647 26.1128 19.1714C26.1016 19.6315 26.481 20.0033 26.9601 20.0017C27.4392 20 27.8367 19.6255 27.8479 19.1654C27.876 18.0114 27.0538 17.0346 25.8978 16.7072L25.9006 16.5914C25.9118 16.1312 25.5324 15.7594 25.0533 15.7611C24.5743 15.7627 24.1767 16.1372 24.1655 16.5974L24.1627 16.7132C22.9906 17.0487 22.1208 18.0312 22.0927 19.1852C22.058 20.6108 23.3207 21.7661 24.9074 21.7606C25.5374 21.7585 26.0399 22.1689 26.0275 22.6756C26.0152 23.1822 25.4927 23.5961 24.8627 23.5983C24.2327 23.6005 23.7303 23.1901 23.7426 22.6834C23.7538 22.2233 23.3744 21.8515 22.8953 21.8531C22.4162 21.8548 22.0187 22.2293 22.0075 22.6894C21.9794 23.8434 22.8015 24.8201 23.9575 25.1475L23.9547 25.2633C23.9435 25.7235 24.3229 26.0953 24.802 26.0936C25.2811 26.092 25.6786 25.7175 25.6898 25.2574L25.6926 25.1415C26.8647 24.8061 27.7346 23.8236 27.7627 22.6696C27.7974 21.244 26.5346 20.0886 24.9479 20.0941C24.318 20.0962 23.8155 19.6859 23.8279 19.1792C23.8402 18.6726 24.3627 18.2586 24.9926 18.2564Z" fill="#263959"/>
<path d="M44.3312 27.8607C44.0225 26.7378 43.0967 25.8921 41.9152 25.6533C41.1586 25.5003 40.3649 25.6172 39.6809 25.9659C40.1298 23.6205 39.9842 21.1968 39.2352 18.94C39.092 18.5087 38.6095 18.281 38.1577 18.4306C37.7058 18.5806 37.4556 19.0519 37.5987 19.4832C38.4834 22.1484 38.4189 25.0763 37.4218 27.7521L30.4397 33.6315C30.0089 33.9942 29.5387 34.3021 29.0408 34.5526C29.1932 34.0101 29.1979 33.4362 29.0444 32.8916C28.8019 32.0315 28.1865 31.3177 27.3558 30.9332L21.3674 28.1612C18.7494 26.9492 15.6533 26.82 12.8731 27.8061L12.252 28.0264C10.6577 23.3805 11.9746 18.2159 15.7214 14.6745L21.9229 8.81307L28.629 8.78663L33.6395 13.7126C33.9667 14.0341 34.5099 14.0319 34.853 13.7078C35.1961 13.3836 35.209 12.86 34.8819 12.5383L30.0945 7.83192L31.9885 2.90842C32.2424 2.24837 31.9977 1.53034 31.3934 1.16215C30.7892 0.794041 30.0009 0.883054 29.4768 1.37823L29.466 1.38844C29.1029 1.73176 28.5256 1.73403 28.1794 1.39351C26.7093 -0.0516545 24.2592 -0.0419939 22.7175 1.41505C22.5416 1.58135 22.3109 1.67338 22.0679 1.67434C21.8249 1.67529 21.5986 1.58499 21.4309 1.42012C20.9306 0.928243 20.1462 0.845844 19.5232 1.21995C18.9002 1.59397 18.621 2.31506 18.8443 2.97348L20.5038 7.87024L14.5368 13.51C12.3285 15.5973 10.83 18.2239 10.2035 21.1057C9.65394 23.633 9.8015 26.2071 10.6257 28.6034L9.26116 29.0873C8.82495 28.5251 8.12735 28.1634 7.33376 28.1666L2.98637 28.1837C1.63007 28.1891 0.500416 29.2569 0.468178 30.5638L0.226146 40.3762C0.193905 41.6833 1.27111 42.7423 2.6274 42.7369L25.242 42.6478C28.7941 42.6338 32.1856 41.3066 34.7917 38.9107L43.3876 31.0085C44.2783 30.1898 44.6399 28.9836 44.3312 27.8607ZM22.027 3.3282C22.7283 3.32543 23.3942 3.05963 23.902 2.57973C24.7587 1.77005 26.1202 1.76468 26.9371 2.56777C27.4212 3.04375 28.0742 3.30435 28.7756 3.30159C29.2736 3.29962 29.7536 3.16511 30.1719 2.91542L28.5493 7.13341L22.0832 7.15891L20.6599 2.95921C21.0636 3.20152 21.5332 3.33014 22.027 3.3282ZM1.94221 40.3695L2.18424 30.5571C2.19399 30.1619 2.53552 29.8391 2.94558 29.8375L7.29288 29.8203C7.70293 29.8187 8.02861 30.1389 8.01886 30.5341L7.77683 40.3464C7.76708 40.7416 7.42555 41.0644 7.01549 41.066L2.66819 41.0832C2.25813 41.0849 1.93246 40.7647 1.94221 40.3695ZM42.2208 29.8274L33.625 37.7296C31.3483 39.8225 28.3857 40.9818 25.2828 40.9941L9.35998 41.0569C9.44021 40.8303 9.48673 40.5895 9.49289 40.3397L9.73148 30.6669L13.4262 29.3564C15.7707 28.5249 18.3817 28.6338 20.5894 29.6558L26.5778 32.4279C26.9816 32.6148 27.269 32.9481 27.3869 33.3663C27.5047 33.7846 27.4342 34.2205 27.1881 34.5935C26.7927 35.1928 26.0357 35.4646 25.3475 35.2551L17.3612 32.8207C16.9131 32.6843 16.4246 32.9266 16.2702 33.3625C16.1159 33.7982 16.354 34.2623 16.8023 34.3989L24.7886 36.8332C25.1175 36.9334 25.4538 36.9809 25.787 36.9796C25.8271 36.9794 25.8672 36.977 25.9072 36.9754C27.9715 36.9386 29.9705 36.1926 31.5485 34.8637L40.1442 27.6255C40.5224 27.3071 41.0362 27.1751 41.5181 27.2724C42.0903 27.3881 42.5213 27.7818 42.6708 28.3256C42.8206 28.8693 42.6523 29.4307 42.2208 29.8274Z" fill="#263959"/>
<path d="M36.4178 16.8228C36.6435 16.8219 36.867 16.7333 37.0303 16.5781C37.1937 16.4237 37.2908 16.2107 37.2962 15.9925C37.3016 15.775 37.215 15.5629 37.0591 15.4089C36.9034 15.2558 36.6843 15.1681 36.4586 15.169C36.2329 15.1699 36.0102 15.2592 35.846 15.4136C35.6826 15.5689 35.5856 15.7818 35.5802 15.9993C35.5748 16.2176 35.6613 16.4297 35.8172 16.5829C35.9729 16.737 36.1921 16.8237 36.4178 16.8228Z" fill="#263959"/>
</svg>
