<svg width="186" height="36" viewBox="0 0 186 36" fill="none" xmlns="http://www.w3.org/2000/svg">
<path fill-rule="evenodd" clip-rule="evenodd" d="M183.995 0.129695C182.813 0.669049 182.865 2.29901 184.077 2.74784C184.738 2.99225 185.436 2.75153 185.825 2.14606C185.984 1.89753 185.998 1.83929 186 1.42645C186.002 1.02962 185.985 0.948451 185.854 0.730141C185.463 0.0780642 184.669 -0.178244 183.995 0.129695ZM84.5537 0.262446C84.3906 0.28665 84.0148 0.334691 83.7184 0.3692C80.5335 0.740185 77.3394 2.14131 74.6379 4.35242C74.0919 4.79924 72.6755 6.17489 72.2636 6.65828C72.1027 6.84721 71.9572 7.01368 71.9403 7.02821C71.9234 7.04275 71.753 7.25704 71.5617 7.50441C69.873 9.68826 68.7709 12.1651 68.3062 14.8215C68.1199 15.8867 68.0642 16.6278 68.0642 18.0468C68.0642 20.0061 68.1832 20.9837 68.6366 22.7501C69.0128 24.2155 69.6999 25.7949 70.5623 27.1763C71.7357 29.0558 73.4052 30.8483 75.2576 32.2174C76.9681 33.4818 78.4697 34.2577 80.5927 34.9742C80.9378 35.0907 82.4808 35.4626 83.0178 35.5587C84.6916 35.8584 87.3023 35.8954 89.1074 35.6452C92.4794 35.1777 95.3627 33.9447 98.0508 31.8205C98.7418 31.2745 99.8015 30.2748 100.327 29.6731C102.179 27.5527 103.396 24.9791 103.9 22.116C104.113 20.9025 104.168 20.0116 104.169 17.7693L104.17 15.6422H95.412H86.6543L86.6683 18.0336L86.6823 20.4249L92.6911 20.4513L98.6998 20.4777L98.6816 20.9269C98.6172 22.5115 98.0835 24.2147 97.2275 25.5675C95.9964 27.5131 93.9352 29.152 91.5594 30.0743C89.9471 30.7002 88.2592 30.9901 86.2782 30.9812C84.9709 30.9753 84.1235 30.8722 82.7214 30.5484C81.9297 30.3655 80.3836 29.6863 79.5149 29.1397C77.8987 28.1228 76.3624 26.5629 75.3299 24.8904C73.8631 22.5143 73.2342 19.6861 73.5084 16.6992C73.7956 13.5715 75.1052 10.8485 77.3963 8.61499C78.692 7.35195 79.9959 6.51016 81.6225 5.88646C82.3351 5.61319 83.4414 5.3276 84.1495 5.23412C84.4162 5.19892 84.7968 5.14824 84.9951 5.1215C85.4821 5.05586 87.2157 5.05983 87.6958 5.12768C88.9345 5.30271 89.4499 5.40719 90.2121 5.63781C90.832 5.82537 91.7983 6.23514 92.3915 6.562C93.0441 6.92162 93.6564 7.33092 94.8197 8.18519C95.7448 8.86448 96.0251 9.08178 97.0234 9.89388C97.4783 10.264 97.5609 10.3023 97.6328 10.1764C97.6565 10.1349 97.8335 9.93785 98.0262 9.73851C98.4565 9.29333 99.5273 8.16236 99.6575 8.01555C99.7099 7.95636 99.9888 7.6592 100.277 7.35512C100.921 6.67641 100.99 6.59857 100.99 6.55365C100.99 6.51961 100.265 5.82209 99.6407 5.25488C98.9291 4.60872 97.618 3.60791 96.7598 3.05582C94.3307 1.49319 91.8915 0.647755 88.8379 0.310011C88.2149 0.241046 84.9425 0.204737 84.5537 0.262446ZM51.531 0.801696C51.4795 0.852165 51.4651 3.30119 51.4651 12.0044C51.4651 22.85 51.4622 23.1641 51.3568 23.9694C51.2338 24.9095 51.1029 25.4814 50.8392 26.2314C50.0819 28.3854 48.5048 30.026 46.5223 30.7221C45.1464 31.2052 43.0982 31.1976 41.5952 30.7038C39.4763 30.0076 37.8335 28.3977 37.1192 26.3173C36.7737 25.311 36.6961 24.8347 36.6616 23.5102C36.6368 22.5539 36.6478 22.3341 36.7514 21.7134C37.0268 20.063 37.6963 18.7107 38.759 17.6584C39.4755 16.9489 40.2346 16.4629 41.1451 16.1308C41.8217 15.884 41.9001 15.8642 42.8652 15.6974C43.2892 15.6241 44.6663 15.627 45.0759 15.7021C46.5635 15.975 48.5041 16.735 49.7193 17.5206C50.0095 17.7083 50.2725 17.8618 50.3037 17.8618C50.349 17.8618 50.3656 15.0891 50.3342 12.756C50.3332 12.6792 49.0365 12.0547 48.4473 11.8473C47.1853 11.4029 46.3203 11.2139 44.8905 11.0704C41.4519 10.7252 38.5445 11.558 36.0525 13.6019C34.075 15.2237 32.7203 17.2852 32.1183 19.5882C31.8291 20.6948 31.7409 21.4558 31.7382 22.8691C31.735 24.5656 31.9952 26.2779 32.451 27.5592C33.5373 30.6126 35.696 33.1224 38.3592 34.4284C39.6579 35.0653 40.671 35.3756 42.196 35.6035C43.0806 35.7357 45.3155 35.7343 46.1839 35.601C47.5367 35.3933 48.5285 35.0986 49.6059 34.584C50.8745 33.9781 51.5591 33.512 52.5385 32.5872C54.3905 30.8383 55.571 28.6921 56.118 26.0795C56.4772 24.3636 56.4757 24.4228 56.4763 12.0354L56.4769 0.792289H54.1101C52.8084 0.792289 51.7104 0.779872 51.6701 0.764705C51.6298 0.749538 51.5672 0.766183 51.531 0.801696ZM0 18.0209V35.2494L2.6002 35.2357L5.2004 35.222L5.21398 18.0071L5.22751 0.792289H2.61378H0V18.0209ZM180.705 3.42887C180.133 3.62277 179.725 4.16772 179.724 4.74058C179.723 5.56118 180.348 6.18034 181.179 6.18034C181.748 6.18034 182.202 5.90057 182.483 5.37532C182.651 5.06279 182.648 4.50452 182.478 4.15916C182.312 3.82406 181.939 3.51215 181.583 3.41058C181.218 3.30637 181.057 3.3097 180.705 3.42887ZM61.7042 3.7302C60.7452 3.90037 60.0812 4.35067 59.6697 5.11019C59.438 5.53793 59.3331 5.98481 59.3331 6.54446C59.3331 8.24707 60.5326 9.40896 62.2869 9.40553C62.8141 9.40447 63.4789 9.24144 63.8527 9.02159C64.4261 8.68427 64.9727 7.90457 65.1021 7.2396C65.1828 6.82459 65.1687 6.15529 65.0714 5.79028C64.9443 5.31296 64.737 4.98008 64.292 4.5386C63.6879 3.93921 63.2635 3.75906 62.3779 3.72629C62.0815 3.7153 61.7783 3.71704 61.7042 3.7302ZM158.868 6.60195C158.23 6.79215 157.831 7.32072 157.827 7.97945C157.823 8.56325 158.104 9.00136 158.657 9.27658C159.302 9.59684 160.212 9.29476 160.548 8.64913C160.684 8.38659 160.735 7.87424 160.653 7.5775C160.461 6.88182 159.567 6.39342 158.868 6.60195ZM163.363 6.65844C162.789 6.88183 162.453 7.38176 162.457 8.00588C162.46 8.58957 162.733 8.99786 163.31 9.28519C163.533 9.39649 163.631 9.41382 163.93 9.39538C164.407 9.36594 164.742 9.2055 165.003 8.88277C165.745 7.96223 165.152 6.64438 163.962 6.57146C163.725 6.55692 163.563 6.58039 163.363 6.65844ZM168.067 6.6289C167.029 6.99185 166.718 8.22551 167.476 8.9688C168.259 9.73735 169.528 9.44115 169.901 8.40223C169.998 8.13282 169.984 7.81098 169.862 7.48999C169.595 6.78977 168.757 6.38771 168.067 6.6289ZM172.726 6.61315C171.915 6.84182 171.493 7.71379 171.802 8.52187C172.051 9.17601 172.849 9.5498 173.561 9.34665C174.109 9.19055 174.604 8.54116 174.604 7.97945C174.604 7.06991 173.627 6.35891 172.726 6.61315ZM177.511 6.60269C176.914 6.7802 176.436 7.39957 176.436 7.99468C176.437 8.48414 176.813 9.05452 177.282 9.27743C177.395 9.33096 177.648 9.38444 177.845 9.39622C178.152 9.41451 178.245 9.39728 178.492 9.27616C178.895 9.07872 179.103 8.86311 179.242 8.49952C179.602 7.55557 178.88 6.53742 177.864 6.55745C177.746 6.55978 177.587 6.58012 177.511 6.60269ZM131.358 10.4616C131.294 10.5644 131.391 10.6218 131.63 10.6218H131.869V11.2824V11.943H132.004H132.139V11.2853V10.6276L132.395 10.6115C132.579 10.5999 132.651 10.5732 132.651 10.5161C132.651 10.451 132.538 10.4342 132.022 10.422C131.631 10.4128 131.38 10.4278 131.358 10.4616ZM132.785 11.1804C132.785 11.9486 132.786 11.9503 132.907 11.9335C133.023 11.9172 133.027 11.8985 133.016 11.423C133.007 11.031 133.019 10.9408 133.073 10.9846C133.11 11.0151 133.174 11.1659 133.214 11.3197C133.338 11.7949 133.42 11.943 133.557 11.943C133.685 11.943 133.773 11.7641 133.916 11.2163C134.003 10.8829 134.087 10.9378 134.078 11.322C134.063 11.9397 134.066 11.9521 134.2 11.9335C134.319 11.9169 134.321 11.9037 134.321 11.1767V10.4368H134.137H133.953L133.756 11.0155C133.648 11.3338 133.546 11.5716 133.53 11.544C133.514 11.5164 133.421 11.25 133.324 10.9521L133.147 10.4104H132.966H132.785V11.1804ZM17.164 11.0505C16.1986 11.1882 16.0047 11.2202 15.709 11.291C13.5096 11.818 11.6449 12.9921 10.2672 14.7174C9.0384 16.2562 8.33298 18.0517 8.13898 20.1342C8.09543 20.6018 8.08228 22.9023 8.09398 28.0084L8.11047 35.222L10.5474 35.2357L12.9843 35.2495L13.0019 27.8372C13.0194 20.5017 13.0207 20.4202 13.1333 19.9757C13.4983 18.5342 14.1941 17.4881 15.361 16.6261C15.7968 16.3041 16.5513 15.9408 17.0562 15.8097C17.5947 15.6699 17.8187 15.6422 18.4139 15.6422C19.912 15.6423 20.9955 16.07 22.0869 17.0921C22.9272 17.8791 23.5122 18.9069 23.7364 19.9902C23.9273 20.9125 23.9317 21.2605 23.9273 35.0508L23.9272 35.2495L26.3927 35.2357L28.8582 35.222L28.8746 28.484C28.8942 20.4496 28.8777 20.007 28.5008 18.4563C27.8397 15.7362 25.9259 13.3811 23.306 12.0636C22.7171 11.7675 21.5496 11.3646 20.9094 11.2366C19.8037 11.0155 18.0285 10.9274 17.164 11.0505ZM118.316 11.0502C117.011 11.2058 116.356 11.3415 115.409 11.6525C115.084 11.7589 114.592 11.9502 114.314 12.0775C113.862 12.2846 112.905 12.7961 112.765 12.9055C112.736 12.9286 112.479 13.1104 112.194 13.3093C111.652 13.6893 111.52 13.794 110.988 14.2715C109.558 15.5556 108.487 17.0928 107.843 18.7866C107.287 20.2456 107.061 21.5568 107.056 23.3315C107.051 25.5659 107.446 27.3222 108.347 29.0725C108.923 30.1898 109.55 31.0266 110.572 32.0434C112.538 33.9981 114.822 35.1509 117.615 35.5988C118.448 35.7323 120.65 35.7356 121.495 35.6046C122.74 35.4117 123.479 35.2137 124.531 34.7913C126.804 33.879 128.961 32.1066 130.332 30.0247C131.085 28.8811 131.769 27.1181 131.984 25.7624C132.421 23.0161 132.137 20.49 131.142 18.2745C130.337 16.4803 128.894 14.745 127.119 13.4368C125.989 12.604 124.908 12.0426 123.64 11.6298C122.657 11.3099 122.127 11.2018 120.773 11.0444C120.241 10.9826 118.855 10.9859 118.316 11.0502ZM172.907 11.1838C172.517 11.2797 172.081 11.6172 171.895 11.9658C171.81 12.1266 171.78 12.2808 171.778 12.5771C171.775 12.9212 171.796 13.0117 171.937 13.2636C172.364 14.0298 173.377 14.2406 174.085 13.7105C174.458 13.431 174.628 13.0765 174.629 12.5771C174.629 12.1445 174.565 11.9775 174.272 11.651C174.02 11.369 173.71 11.2142 173.338 11.1837C173.16 11.1691 172.966 11.1691 172.907 11.1838ZM177.541 11.197C177.142 11.299 176.746 11.6185 176.565 11.9864C176.418 12.2829 176.404 12.8147 176.534 13.111C176.768 13.6426 177.192 13.9464 177.761 13.9912C178.337 14.0365 178.852 13.7785 179.126 13.3082C179.538 12.6006 179.299 11.7523 178.57 11.3358C178.328 11.198 177.811 11.1282 177.541 11.197ZM59.7867 11.5158C59.7743 11.5279 59.7642 16.8727 59.7642 23.3931V35.2484H62.2432H64.7223L64.7087 23.3822L64.6951 11.516L62.2521 11.5049C60.9085 11.4988 59.799 11.5037 59.7867 11.5158ZM169.526 14.4231C169.145 14.5443 168.746 14.901 168.595 15.2543C168.477 15.5325 168.49 16.1271 168.62 16.3771C169.042 17.1896 169.912 17.4535 170.672 17C171.196 16.6872 171.477 16.103 171.362 15.5674C171.259 15.0931 171.08 14.8399 170.634 14.5407C170.442 14.4116 169.782 14.3416 169.526 14.4231ZM120.849 15.7191C122.215 15.9566 123.094 16.3144 124.049 17.0213C126.06 18.5104 127.106 20.8732 127.004 23.6984C126.96 24.9161 126.721 26.0195 126.311 26.8906C126.196 27.1333 126.103 27.3412 126.103 27.3525C126.103 27.3639 125.99 27.5458 125.852 27.7568C124.657 29.587 123.064 30.63 120.909 30.9929C120.29 31.0972 118.905 31.0985 118.262 30.9954C116.712 30.7468 115.519 30.1508 114.403 29.0668C113.13 27.8308 112.453 26.4109 112.223 24.4958C111.979 22.465 112.384 20.3587 113.29 18.9469C114.459 17.125 116.1 16.0726 118.343 15.7047C118.822 15.6261 120.364 15.6349 120.849 15.7191ZM177.532 15.7458C177.328 15.7935 176.93 16.0157 176.804 16.152C176.755 16.2059 176.652 16.3723 176.575 16.5219C176.207 17.2424 176.574 18.1611 177.343 18.4461C178.056 18.7099 178.846 18.4058 179.198 17.7325C179.34 17.4589 179.351 16.8721 179.217 16.5767C178.93 15.9387 178.215 15.5863 177.532 15.7458ZM166.381 17.6191C165.3 17.8764 164.865 19.0739 165.546 19.9171C166.163 20.6805 167.474 20.5532 167.937 19.685C168.163 19.262 168.188 18.9512 168.031 18.5376C167.892 18.1757 167.667 17.9122 167.375 17.7697C167.167 17.6688 166.756 17.538 166.682 17.5495C166.667 17.5518 166.532 17.5831 166.381 17.6191ZM177.433 20.3069C176.942 20.5054 176.659 20.7844 176.509 21.2182C176.345 21.6906 176.506 22.3603 176.863 22.6908C177.149 22.9554 177.456 23.0674 177.891 23.0655C178.374 23.0634 178.621 22.9561 178.951 22.6048C179.218 22.3212 179.316 22.0592 179.313 21.6404C179.309 21.0986 179.017 20.6417 178.511 20.3859C178.252 20.2547 177.668 20.2119 177.433 20.3069ZM163.045 20.8369C162.606 20.9669 162.272 21.2329 162.069 21.6139C161.917 21.898 161.93 22.5211 162.093 22.8294C162.372 23.3554 162.804 23.6207 163.385 23.6216C164.213 23.6229 164.851 22.9919 164.849 22.1726C164.848 21.3084 163.877 20.5899 163.045 20.8369ZM150.344 24.0636C149.101 24.4442 148.975 26.1357 150.149 26.709C150.865 27.059 151.761 26.7319 152.09 26.0002C152.242 25.6625 152.235 25.1316 152.075 24.8164C151.749 24.1771 151.016 23.8581 150.344 24.0636ZM155.069 24.0275C154.184 24.2625 153.712 25.1865 154.069 25.9807C154.585 27.1248 156.201 27.1333 156.721 25.9945C156.942 25.51 156.794 24.7553 156.41 24.4064C156.064 24.0927 155.463 23.9229 155.069 24.0275ZM159.784 24.0258C159.21 24.2525 158.867 24.581 158.733 25.0319C158.396 26.1697 159.519 27.1591 160.669 26.7371C161.021 26.6081 161.401 26.2281 161.499 25.907C161.785 24.9685 161.166 24.0684 160.196 24.0129C160.014 24.0025 159.829 24.0083 159.784 24.0258ZM177.377 24.8661C177.08 24.9735 176.801 25.2103 176.617 25.5108C176.48 25.7349 176.463 25.8117 176.463 26.2128C176.463 26.6344 176.475 26.681 176.646 26.9417C177.17 27.7436 178.174 27.8663 178.883 27.2152C179.6 26.5561 179.4 25.3402 178.504 24.9151C178.234 24.787 177.665 24.7622 177.377 24.8661ZM159.542 28.7717C159.059 29.0014 158.808 29.2989 158.703 29.7688C158.47 30.8073 159.492 31.7254 160.546 31.4248C161.136 31.2567 161.563 30.6973 161.563 30.092C161.563 29.6709 161.471 29.4149 161.218 29.1339C160.786 28.6518 160.104 28.5045 159.542 28.7717ZM159.582 33.2625C159.132 33.4639 158.829 33.8259 158.704 34.3124C158.559 34.8751 158.878 35.5293 159.449 35.8436C159.694 35.9782 159.79 36 160.137 36C160.5 36 160.571 35.9821 160.84 35.8224C161.165 35.6292 161.344 35.4324 161.477 35.1197C161.578 34.8817 161.588 34.4201 161.499 34.1262C161.424 33.8813 161.04 33.4418 160.792 33.3173C160.548 33.1947 159.809 33.1612 159.582 33.2625Z" fill="#2C3A9B"/>
</svg>
