<svg width="31" height="40" viewBox="0 0 31 40" fill="none" xmlns="http://www.w3.org/2000/svg">
<path d="M27.6591 0H0.696532C0.31186 0 0 0.31186 0 0.696533V6.52725C0 6.91193 0.31186 7.22378 0.696532 7.22378C1.08121 7.22378 1.39306 6.91193 1.39306 6.52725V1.39297H27.6591C28.7258 1.39297 29.5937 2.26087 29.5937 3.3276V36.6723C29.5937 37.739 28.7258 38.6069 27.6591 38.6069H1.39306V8.84903C1.39306 8.46436 1.08121 8.15249 0.696532 8.15249C0.31186 8.15249 0 8.46436 0 8.84903V39.3035C0 39.6881 0.31186 40 0.696532 40H27.6591C29.494 40 30.9867 38.5073 30.9867 36.6724V3.3276C30.9868 1.49271 29.494 0 27.6591 0Z" fill="#1C3867"/>
<path d="M15.4928 5.61279C9.5175 5.61279 4.65625 10.474 4.65625 16.4492C4.65625 22.4244 9.5175 27.2856 15.4928 27.2856C21.4679 27.2856 26.3292 22.4244 26.3292 16.4492C26.3292 10.474 21.4679 5.61279 15.4928 5.61279ZM11.5005 7.89244C11.2598 8.20961 11.0308 8.55719 10.8161 8.93536C10.5901 9.33349 10.3849 9.75773 10.1998 10.2026C9.85089 9.96509 9.51586 9.70314 9.19713 9.41693C9.88239 8.80274 10.6577 8.28728 11.5005 7.89244ZM8.23013 10.4202C8.69806 10.8444 9.19685 11.2233 9.72138 11.5551C9.33625 12.8503 9.10829 14.2736 9.05361 15.7529H6.07505C6.22287 13.7341 7.00816 11.8896 8.23013 10.4202ZM6.07505 17.1458H9.05361C9.10829 18.6251 9.33634 20.0483 9.72138 21.3435C9.19694 21.6753 8.69815 22.0542 8.23022 22.4785C7.00825 21.0091 6.22287 19.1646 6.07505 17.1458ZM9.19722 23.4817C9.51586 23.1954 9.85089 22.9335 10.1998 22.6959C10.3849 23.1409 10.5901 23.5651 10.8161 23.9632C11.0308 24.3415 11.2598 24.689 11.5005 25.0061C10.6578 24.6112 9.88249 24.0958 9.19722 23.4817ZM14.7962 25.7985C13.4323 25.4302 12.2237 24.0019 11.4261 21.9909C12.474 21.4902 13.6121 21.1875 14.7962 21.1022V25.7985ZM14.7962 19.7065C13.4593 19.7903 12.1719 20.1141 10.9826 20.659C10.6864 19.5822 10.4981 18.3934 10.4465 17.1458H14.7962V19.7065ZM14.7962 15.7528H10.4466C10.4981 14.505 10.6865 13.3162 10.9827 12.2393C12.172 12.7839 13.4592 13.1077 14.7962 13.1913V15.7528ZM14.7962 11.7956C13.612 11.7104 12.474 11.4079 11.4263 10.9074C12.2238 8.89661 13.4324 7.46838 14.7962 7.1001V11.7956ZM24.9105 15.7528H21.9319C21.8772 14.2734 21.6491 12.8501 21.264 11.5548C21.7886 11.2232 22.2873 10.8442 22.7552 10.4199C23.9772 11.8893 24.7625 13.7339 24.9105 15.7528ZM21.788 9.41675C21.4694 9.70296 21.1344 9.96481 20.7854 10.2023C20.6004 9.75755 20.3952 9.33331 20.1692 8.93536C19.9545 8.5571 19.7255 8.20961 19.4848 7.89253C20.3276 8.28727 21.1027 8.80274 21.788 9.41675ZM16.1893 7.1001C17.553 7.46838 18.7616 8.89652 19.5591 10.9073C18.5114 11.4078 17.3735 11.7103 16.1893 11.7956V7.1001ZM16.1893 13.1912C17.5262 13.1074 18.8136 12.7837 20.0027 12.2391C20.2991 13.3161 20.4874 14.505 20.5389 15.7528H16.1893V13.1912ZM16.1893 17.1458H20.5389C20.4875 18.3934 20.2991 19.5822 20.0028 20.6591C18.8134 20.1142 17.5261 19.7903 16.1893 19.7065V17.1458ZM16.1893 25.7984V21.1022C17.3734 21.1875 18.5114 21.4902 19.5593 21.991C18.7617 24.0018 17.5531 25.43 16.1893 25.7984ZM19.4848 25.0062C19.7257 24.6891 19.9546 24.3415 20.1693 23.9632C20.3953 23.5652 20.6005 23.141 20.7855 22.6961C21.1343 22.9336 21.4694 23.1956 21.788 23.4818C21.1027 24.0959 20.3275 24.6114 19.4848 25.0062ZM22.7552 22.4786C22.2873 22.0543 21.7886 21.6754 21.2641 21.3436C21.6493 20.0484 21.8772 18.6251 21.932 17.1458H24.9105C24.7625 19.1647 23.9772 21.0093 22.7552 22.4786Z" fill="#1C3867"/>
<path d="M17.7373 32.9531H6.55591C6.17123 32.9531 5.85938 33.265 5.85938 33.6497C5.85938 34.0343 6.17123 34.3462 6.55591 34.3462H17.7373C18.122 34.3462 18.4339 34.0343 18.4339 33.6497C18.4339 33.265 18.122 32.9531 17.7373 32.9531Z" fill="#1C3867"/>
<path d="M24.5812 32.9531H20.0579C19.6732 32.9531 19.3613 33.265 19.3613 33.6497C19.3613 34.0343 19.6732 34.3462 20.0579 34.3462H24.5812C24.9658 34.3462 25.2777 34.0343 25.2777 33.6497C25.2777 33.265 24.9658 32.9531 24.5812 32.9531Z" fill="#1C3867"/>
<path d="M24.5824 29.6733H6.55591C6.17123 29.6733 5.85938 29.9852 5.85938 30.3699C5.85938 30.7545 6.17123 31.0664 6.55591 31.0664H24.5824C24.9671 31.0664 25.2789 30.7545 25.2789 30.3699C25.2789 29.9852 24.9671 29.6733 24.5824 29.6733Z" fill="#1C3867"/>
</svg>
